<svg xmlns="http://www.w3.org/2000/svg" width="19" height="21"><defs><filter id="a" width="39.5" height="41.3" x="-10" y="-10" filterUnits="userSpaceOnUse"><feOffset dx="2.5" dy="4.3" in="SourceGraphic" result="FeOffset1053Out"/><feGaussianBlur in="FeOffset1053Out" result="FeGaussianBlur1054Out" stdDeviation="0 0"/></filter><mask id="b" width="2" height="2" x="-1" y="-1"><path fill="#fff" d="M0 0h17v17H0z"/><path d="M8.5 0a8.5 8.5 0 110 17 8.5 8.5 0 010-17z"/></mask></defs><g filter="url(#a)"><path fill="none" d="M8.5 0a8.5 8.5 0 110 17 8.5 8.5 0 010-17z" mask="url(&quot;#b&quot;)"/><path fill="#0a0c0c" fill-opacity=".1" d="M8.5 0a8.5 8.5 0 110 17 8.5 8.5 0 010-17z"/></g><path fill="#fff" d="M8.5 0a8.5 8.5 0 110 17 8.5 8.5 0 010-17z"/></svg>